<mxfile host="app.diagrams.net" modified="2023-12-18T09:01:53.206Z" agent="Mozilla/5.0 (Macintosh; Intel Mac OS X 10_15_7) AppleWebKit/537.36 (KHTML, like Gecko) Chrome/120.0.0.0 Safari/537.36" etag="ufChtk92cbgAb2ZBdx44" version="22.1.11" type="github">
  <diagram name="第 1 页" id="z60zmUDA_NRWNLkNqfMZ">
    <mxGraphModel dx="1026" dy="581" grid="1" gridSize="10" guides="1" tooltips="1" connect="1" arrows="1" fold="1" page="1" pageScale="1" pageWidth="827" pageHeight="1169" math="0" shadow="0">
      <root>
        <mxCell id="0" />
        <mxCell id="1" parent="0" />
        <mxCell id="jyB_UmzL48LcIVnqlv-9-22" value="" style="rounded=0;whiteSpace=wrap;html=1;fontSize=14;fillColor=#dae8fc;strokeColor=#6c8ebf;" parent="1" vertex="1">
          <mxGeometry x="600" y="290" width="340" height="1000" as="geometry" />
        </mxCell>
        <mxCell id="jyB_UmzL48LcIVnqlv-9-23" value="" style="rounded=0;whiteSpace=wrap;html=1;fontSize=14;fillColor=#f8cecc;strokeColor=#b85450;" parent="1" vertex="1">
          <mxGeometry x="970" y="290" width="190" height="1000" as="geometry" />
        </mxCell>
        <mxCell id="ryWL0rZuBNHNWBqCZ-Gl-1" value="Data Analysis Layer" style="text;html=1;strokeColor=none;fillColor=none;align=center;verticalAlign=middle;whiteSpace=wrap;rounded=0;fontSize=16;" parent="1" vertex="1">
          <mxGeometry x="685.5" y="310" width="145" height="30" as="geometry" />
        </mxCell>
        <mxCell id="ryWL0rZuBNHNWBqCZ-Gl-2" value="Data Storage Layer" style="text;html=1;strokeColor=none;fillColor=none;align=center;verticalAlign=middle;whiteSpace=wrap;rounded=0;fontSize=16;" parent="1" vertex="1">
          <mxGeometry x="987.5" y="310" width="155" height="30" as="geometry" />
        </mxCell>
        <mxCell id="ryWL0rZuBNHNWBqCZ-Gl-3" value="redis" style="rounded=0;whiteSpace=wrap;html=1;fontSize=14;" parent="1" vertex="1">
          <mxGeometry x="1005" y="504" width="120" height="60" as="geometry" />
        </mxCell>
        <mxCell id="ryWL0rZuBNHNWBqCZ-Gl-4" value="application events" style="rounded=0;whiteSpace=wrap;html=1;fontSize=14;fillColor=#fad9d5;strokeColor=#ae4132;" parent="1" vertex="1">
          <mxGeometry x="90" y="1320" width="1280" height="70" as="geometry" />
        </mxCell>
        <mxCell id="ryWL0rZuBNHNWBqCZ-Gl-5" value="mysql" style="rounded=0;whiteSpace=wrap;html=1;fontSize=14;" parent="1" vertex="1">
          <mxGeometry x="1005" y="773" width="120" height="60" as="geometry" />
        </mxCell>
        <mxCell id="ryWL0rZuBNHNWBqCZ-Gl-6" value="clickhouse" style="rounded=0;whiteSpace=wrap;html=1;fontSize=14;" parent="1" vertex="1">
          <mxGeometry x="1005" y="1038" width="120" height="60" as="geometry" />
        </mxCell>
        <mxCell id="ryWL0rZuBNHNWBqCZ-Gl-7" value="" style="rounded=0;whiteSpace=wrap;html=1;fontSize=14;fillColor=#ffe6cc;strokeColor=#d79b00;" parent="1" vertex="1">
          <mxGeometry x="1190" y="290" width="180" height="1000" as="geometry" />
        </mxCell>
        <mxCell id="ryWL0rZuBNHNWBqCZ-Gl-8" value="Application" style="text;html=1;strokeColor=none;fillColor=none;align=center;verticalAlign=middle;whiteSpace=wrap;rounded=0;fontSize=16;" parent="1" vertex="1">
          <mxGeometry x="1250" y="310" width="60" height="30" as="geometry" />
        </mxCell>
        <mxCell id="ryWL0rZuBNHNWBqCZ-Gl-9" value="ad" style="rounded=0;whiteSpace=wrap;html=1;fontSize=14;" parent="1" vertex="1">
          <mxGeometry x="1220" y="380" width="120" height="60" as="geometry" />
        </mxCell>
        <mxCell id="ryWL0rZuBNHNWBqCZ-Gl-10" value="customer" style="rounded=0;whiteSpace=wrap;html=1;fontSize=14;" parent="1" vertex="1">
          <mxGeometry x="1220" y="499" width="120" height="60" as="geometry" />
        </mxCell>
        <mxCell id="ryWL0rZuBNHNWBqCZ-Gl-11" value="order" style="rounded=0;whiteSpace=wrap;html=1;fontSize=14;" parent="1" vertex="1">
          <mxGeometry x="1220" y="617" width="120" height="60" as="geometry" />
        </mxCell>
        <mxCell id="ryWL0rZuBNHNWBqCZ-Gl-12" value="attribution" style="rounded=0;whiteSpace=wrap;html=1;fontSize=14;" parent="1" vertex="1">
          <mxGeometry x="1220" y="736" width="120" height="60" as="geometry" />
        </mxCell>
        <mxCell id="ryWL0rZuBNHNWBqCZ-Gl-13" value="conversion path" style="rounded=0;whiteSpace=wrap;html=1;fontSize=14;" parent="1" vertex="1">
          <mxGeometry x="1220" y="854" width="120" height="60" as="geometry" />
        </mxCell>
        <mxCell id="ryWL0rZuBNHNWBqCZ-Gl-14" value="event stream" style="rounded=0;whiteSpace=wrap;html=1;fontSize=14;" parent="1" vertex="1">
          <mxGeometry x="1220" y="973" width="120" height="60" as="geometry" />
        </mxCell>
        <mxCell id="ryWL0rZuBNHNWBqCZ-Gl-15" value="influencer" style="rounded=0;whiteSpace=wrap;html=1;fontSize=14;" parent="1" vertex="1">
          <mxGeometry x="1220" y="1091" width="120" height="60" as="geometry" />
        </mxCell>
        <mxCell id="ryWL0rZuBNHNWBqCZ-Gl-16" value="operator" style="rounded=0;whiteSpace=wrap;html=1;fontSize=14;" parent="1" vertex="1">
          <mxGeometry x="1220" y="1210" width="120" height="60" as="geometry" />
        </mxCell>
        <mxCell id="ryWL0rZuBNHNWBqCZ-Gl-21" value="" style="group" parent="1" vertex="1" connectable="0">
          <mxGeometry x="90" y="290" width="480" height="1130" as="geometry" />
        </mxCell>
        <mxCell id="jyB_UmzL48LcIVnqlv-9-24" value="" style="rounded=0;whiteSpace=wrap;html=1;fontSize=14;fillColor=#d5e8d4;strokeColor=#82b366;" parent="ryWL0rZuBNHNWBqCZ-Gl-21" vertex="1">
          <mxGeometry width="480" height="1000" as="geometry" />
        </mxCell>
        <mxCell id="jyB_UmzL48LcIVnqlv-9-1" value="webpixe" style="rounded=0;whiteSpace=wrap;html=1;fontSize=14;" parent="ryWL0rZuBNHNWBqCZ-Gl-21" vertex="1">
          <mxGeometry x="20" y="80" width="120" height="35" as="geometry" />
        </mxCell>
        <mxCell id="jyB_UmzL48LcIVnqlv-9-2" value="js sdk" style="rounded=0;whiteSpace=wrap;html=1;fontSize=14;" parent="ryWL0rZuBNHNWBqCZ-Gl-21" vertex="1">
          <mxGeometry x="20" y="130" width="120" height="35" as="geometry" />
        </mxCell>
        <mxCell id="jyB_UmzL48LcIVnqlv-9-3" value="webhook" style="rounded=0;whiteSpace=wrap;html=1;fontSize=14;" parent="ryWL0rZuBNHNWBqCZ-Gl-21" vertex="1">
          <mxGeometry x="20" y="180" width="120" height="35" as="geometry" />
        </mxCell>
        <mxCell id="jyB_UmzL48LcIVnqlv-9-4" value="track&lt;br style=&quot;font-size: 14px;&quot;&gt;&lt;br style=&quot;font-size: 14px;&quot;&gt;service" style="rounded=0;whiteSpace=wrap;html=1;fontSize=14;" parent="ryWL0rZuBNHNWBqCZ-Gl-21" vertex="1">
          <mxGeometry x="180" y="80" width="120" height="140" as="geometry" />
        </mxCell>
        <mxCell id="jyB_UmzL48LcIVnqlv-9-5" value="kafka" style="rounded=0;whiteSpace=wrap;html=1;fontSize=14;" parent="ryWL0rZuBNHNWBqCZ-Gl-21" vertex="1">
          <mxGeometry x="340" y="80" width="120" height="140" as="geometry" />
        </mxCell>
        <mxCell id="jyB_UmzL48LcIVnqlv-9-6" value="meta" style="rounded=0;whiteSpace=wrap;html=1;fontSize=14;" parent="ryWL0rZuBNHNWBqCZ-Gl-21" vertex="1">
          <mxGeometry x="20" y="260" width="120" height="35" as="geometry" />
        </mxCell>
        <mxCell id="jyB_UmzL48LcIVnqlv-9-7" value="google" style="rounded=0;whiteSpace=wrap;html=1;fontSize=14;" parent="ryWL0rZuBNHNWBqCZ-Gl-21" vertex="1">
          <mxGeometry x="20" y="311" width="120" height="35" as="geometry" />
        </mxCell>
        <mxCell id="jyB_UmzL48LcIVnqlv-9-8" value="bing" style="rounded=0;whiteSpace=wrap;html=1;fontSize=14;" parent="ryWL0rZuBNHNWBqCZ-Gl-21" vertex="1">
          <mxGeometry x="20" y="357" width="120" height="45" as="geometry" />
        </mxCell>
        <mxCell id="jyB_UmzL48LcIVnqlv-9-9" value="linkedin" style="rounded=0;whiteSpace=wrap;html=1;fontSize=14;" parent="ryWL0rZuBNHNWBqCZ-Gl-21" vertex="1">
          <mxGeometry x="20" y="413" width="120" height="35" as="geometry" />
        </mxCell>
        <mxCell id="jyB_UmzL48LcIVnqlv-9-10" value="tiktok" style="rounded=0;whiteSpace=wrap;html=1;fontSize=14;" parent="ryWL0rZuBNHNWBqCZ-Gl-21" vertex="1">
          <mxGeometry x="20" y="464" width="120" height="35" as="geometry" />
        </mxCell>
        <mxCell id="jyB_UmzL48LcIVnqlv-9-11" value="pinterest" style="rounded=0;whiteSpace=wrap;html=1;fontSize=14;" parent="ryWL0rZuBNHNWBqCZ-Gl-21" vertex="1">
          <mxGeometry x="20" y="515" width="120" height="35" as="geometry" />
        </mxCell>
        <mxCell id="jyB_UmzL48LcIVnqlv-9-12" value="klaviyo" style="rounded=0;whiteSpace=wrap;html=1;fontSize=14;" parent="ryWL0rZuBNHNWBqCZ-Gl-21" vertex="1">
          <mxGeometry x="20" y="600" width="120" height="35" as="geometry" />
        </mxCell>
        <mxCell id="jyB_UmzL48LcIVnqlv-9-13" value="mailchimp" style="rounded=0;whiteSpace=wrap;html=1;fontSize=14;" parent="ryWL0rZuBNHNWBqCZ-Gl-21" vertex="1">
          <mxGeometry x="20" y="660" width="120" height="35" as="geometry" />
        </mxCell>
        <mxCell id="jyB_UmzL48LcIVnqlv-9-14" value="omnisend" style="rounded=0;whiteSpace=wrap;html=1;fontSize=14;" parent="ryWL0rZuBNHNWBqCZ-Gl-21" vertex="1">
          <mxGeometry x="20" y="720" width="120" height="35" as="geometry" />
        </mxCell>
        <mxCell id="jyB_UmzL48LcIVnqlv-9-15" value="shopify" style="rounded=0;whiteSpace=wrap;html=1;fontSize=14;" parent="ryWL0rZuBNHNWBqCZ-Gl-21" vertex="1">
          <mxGeometry x="20" y="810" width="120" height="35" as="geometry" />
        </mxCell>
        <mxCell id="jyB_UmzL48LcIVnqlv-9-16" value="woocommerce" style="rounded=0;whiteSpace=wrap;html=1;fontSize=14;" parent="ryWL0rZuBNHNWBqCZ-Gl-21" vertex="1">
          <mxGeometry x="20" y="870" width="120" height="35" as="geometry" />
        </mxCell>
        <mxCell id="jyB_UmzL48LcIVnqlv-9-17" value="magento" style="rounded=0;whiteSpace=wrap;html=1;fontSize=14;" parent="ryWL0rZuBNHNWBqCZ-Gl-21" vertex="1">
          <mxGeometry x="20" y="930" width="120" height="35" as="geometry" />
        </mxCell>
        <mxCell id="jyB_UmzL48LcIVnqlv-9-18" value="ad&lt;br style=&quot;font-size: 14px;&quot;&gt;&lt;br style=&quot;font-size: 14px;&quot;&gt;service" style="rounded=0;whiteSpace=wrap;html=1;fontSize=14;" parent="ryWL0rZuBNHNWBqCZ-Gl-21" vertex="1">
          <mxGeometry x="180" y="260" width="120" height="293" as="geometry" />
        </mxCell>
        <mxCell id="jyB_UmzL48LcIVnqlv-9-19" value="mail&lt;br style=&quot;font-size: 14px;&quot;&gt;&lt;br style=&quot;font-size: 14px;&quot;&gt;service" style="rounded=0;whiteSpace=wrap;html=1;fontSize=14;" parent="ryWL0rZuBNHNWBqCZ-Gl-21" vertex="1">
          <mxGeometry x="180" y="600" width="120" height="160" as="geometry" />
        </mxCell>
        <mxCell id="jyB_UmzL48LcIVnqlv-9-20" value="ecommerce&lt;br style=&quot;font-size: 14px;&quot;&gt;&lt;br style=&quot;font-size: 14px;&quot;&gt;service" style="rounded=0;whiteSpace=wrap;html=1;fontSize=14;" parent="ryWL0rZuBNHNWBqCZ-Gl-21" vertex="1">
          <mxGeometry x="180" y="810" width="120" height="160" as="geometry" />
        </mxCell>
        <mxCell id="jyB_UmzL48LcIVnqlv-9-21" value="3rd&lt;br style=&quot;font-size: 14px;&quot;&gt;&lt;br style=&quot;font-size: 14px;&quot;&gt;api&lt;br style=&quot;font-size: 14px;&quot;&gt;&lt;br style=&quot;font-size: 14px;&quot;&gt;service" style="rounded=0;whiteSpace=wrap;html=1;fontSize=14;" parent="ryWL0rZuBNHNWBqCZ-Gl-21" vertex="1">
          <mxGeometry x="340" y="260" width="120" height="710" as="geometry" />
        </mxCell>
        <mxCell id="jyB_UmzL48LcIVnqlv-9-26" value="Data Collecting Layer" style="text;html=1;align=center;verticalAlign=middle;resizable=0;points=[];autosize=1;strokeColor=none;fillColor=none;fontSize=16;" parent="ryWL0rZuBNHNWBqCZ-Gl-21" vertex="1">
          <mxGeometry x="130" y="20" width="180" height="30" as="geometry" />
        </mxCell>
        <mxCell id="ryWL0rZuBNHNWBqCZ-Gl-24" value="Attribuly User ID" style="rounded=0;whiteSpace=wrap;html=1;labelBorderColor=none;fontSize=14;" parent="1" vertex="1">
          <mxGeometry x="698" y="380" width="120" height="60" as="geometry" />
        </mxCell>
        <mxCell id="ryWL0rZuBNHNWBqCZ-Gl-25" value="Session" style="rounded=0;whiteSpace=wrap;html=1;labelBorderColor=none;fontSize=14;" parent="1" vertex="1">
          <mxGeometry x="698" y="512" width="120" height="60" as="geometry" />
        </mxCell>
        <mxCell id="ryWL0rZuBNHNWBqCZ-Gl-26" value="Device" style="rounded=0;whiteSpace=wrap;html=1;labelBorderColor=none;fontSize=14;" parent="1" vertex="1">
          <mxGeometry x="698" y="643" width="120" height="60" as="geometry" />
        </mxCell>
        <mxCell id="ryWL0rZuBNHNWBqCZ-Gl-27" value="Cross Device / Multi Touch" style="rounded=0;whiteSpace=wrap;html=1;labelBorderColor=none;fontSize=14;" parent="1" vertex="1">
          <mxGeometry x="666.5" y="773" width="183" height="60" as="geometry" />
        </mxCell>
        <mxCell id="ryWL0rZuBNHNWBqCZ-Gl-28" value="Behavior List" style="rounded=0;whiteSpace=wrap;html=1;labelBorderColor=none;fontSize=14;" parent="1" vertex="1">
          <mxGeometry x="698" y="906" width="120" height="60" as="geometry" />
        </mxCell>
        <mxCell id="ryWL0rZuBNHNWBqCZ-Gl-29" value="Link Path" style="rounded=0;whiteSpace=wrap;html=1;labelBorderColor=none;fontSize=14;" parent="1" vertex="1">
          <mxGeometry x="698" y="1038" width="120" height="60" as="geometry" />
        </mxCell>
        <mxCell id="ryWL0rZuBNHNWBqCZ-Gl-30" value="Conversion Path" style="rounded=0;whiteSpace=wrap;html=1;labelBorderColor=none;fontSize=14;" parent="1" vertex="1">
          <mxGeometry x="698" y="1169" width="120" height="60" as="geometry" />
        </mxCell>
        <mxCell id="ryWL0rZuBNHNWBqCZ-Gl-31" value="configuration" style="rounded=0;whiteSpace=wrap;html=1;fontSize=14;fillColor=#fad9d5;strokeColor=#ae4132;" parent="1" vertex="1">
          <mxGeometry x="90" y="190" width="1280" height="70" as="geometry" />
        </mxCell>
        <mxCell id="G1LCGf7eFojKXsm7K3be-3" value="神策数据采集" style="rounded=0;whiteSpace=wrap;html=1;" vertex="1" parent="1">
          <mxGeometry x="90" y="80" width="470" height="60" as="geometry" />
        </mxCell>
        <mxCell id="G1LCGf7eFojKXsm7K3be-4" value="神策广告分析" style="rounded=0;whiteSpace=wrap;html=1;" vertex="1" parent="1">
          <mxGeometry x="600" y="80" width="340" height="60" as="geometry" />
        </mxCell>
        <mxCell id="G1LCGf7eFojKXsm7K3be-5" value="用户与经营分析" style="rounded=0;whiteSpace=wrap;html=1;" vertex="1" parent="1">
          <mxGeometry x="970" y="50" width="400" height="60" as="geometry" />
        </mxCell>
        <mxCell id="G1LCGf7eFojKXsm7K3be-7" value="用户旅程分析与优化" style="rounded=0;whiteSpace=wrap;html=1;" vertex="1" parent="1">
          <mxGeometry x="970" y="120" width="400" height="60" as="geometry" />
        </mxCell>
      </root>
    </mxGraphModel>
  </diagram>
</mxfile>
